<mxfile host="app.diagrams.net" modified="2020-11-03T06:09:00.620Z" agent="5.0 (Windows NT 10.0; Win64; x64) AppleWebKit/537.36 (KHTML, like Gecko) Chrome/86.0.4240.111 Safari/537.36" etag="t0djO2NkA22mh0_UiX4V" version="13.8.6" type="github">
  <diagram id="kgpKYQtTHZ0yAKxKKP6v" name="Page-1">
    <mxGraphModel dx="1673" dy="896" grid="1" gridSize="10" guides="1" tooltips="1" connect="1" arrows="1" fold="1" page="1" pageScale="1" pageWidth="850" pageHeight="1100" math="0" shadow="0">
      <root>
        <mxCell id="0" />
        <mxCell id="1" parent="0" />
        <mxCell id="cr8irGBxpJgkFazn-tBJ-20" style="edgeStyle=none;orthogonalLoop=1;jettySize=auto;html=1;shadow=0;endArrow=block;strokeWidth=1;" edge="1" parent="1" source="3nuBFxr9cyL0pnOWT2aG-1">
          <mxGeometry relative="1" as="geometry">
            <mxPoint x="170" y="710" as="targetPoint" />
          </mxGeometry>
        </mxCell>
        <mxCell id="3nuBFxr9cyL0pnOWT2aG-1" value="Client" style="shape=umlLifeline;perimeter=lifelinePerimeter;container=1;collapsible=0;recursiveResize=0;rounded=0;shadow=0;strokeWidth=1;" parent="1" vertex="1">
          <mxGeometry x="120" y="80" width="100" height="1380" as="geometry" />
        </mxCell>
        <mxCell id="3nuBFxr9cyL0pnOWT2aG-2" value="" style="points=[];perimeter=orthogonalPerimeter;rounded=0;shadow=0;strokeWidth=1;" parent="3nuBFxr9cyL0pnOWT2aG-1" vertex="1">
          <mxGeometry x="45" y="70" width="10" height="210" as="geometry" />
        </mxCell>
        <mxCell id="3nuBFxr9cyL0pnOWT2aG-3" value="register" style="verticalAlign=bottom;startArrow=oval;endArrow=block;startSize=8;shadow=0;strokeWidth=1;" parent="3nuBFxr9cyL0pnOWT2aG-1" target="3nuBFxr9cyL0pnOWT2aG-2" edge="1">
          <mxGeometry relative="1" as="geometry">
            <mxPoint x="-15" y="70" as="sourcePoint" />
          </mxGeometry>
        </mxCell>
        <mxCell id="cr8irGBxpJgkFazn-tBJ-73" value="" style="points=[];perimeter=orthogonalPerimeter;rounded=0;shadow=0;strokeWidth=1;" vertex="1" parent="3nuBFxr9cyL0pnOWT2aG-1">
          <mxGeometry x="45" y="990" width="10" height="180" as="geometry" />
        </mxCell>
        <mxCell id="3nuBFxr9cyL0pnOWT2aG-5" value="Firebase" style="shape=umlLifeline;perimeter=lifelinePerimeter;container=1;collapsible=0;recursiveResize=0;rounded=0;shadow=0;strokeWidth=1;" parent="1" vertex="1">
          <mxGeometry x="560" y="80" width="100" height="1380" as="geometry" />
        </mxCell>
        <mxCell id="3nuBFxr9cyL0pnOWT2aG-6" value="" style="points=[];perimeter=orthogonalPerimeter;rounded=0;shadow=0;strokeWidth=1;" parent="3nuBFxr9cyL0pnOWT2aG-5" vertex="1">
          <mxGeometry x="45" y="80" width="10" height="60" as="geometry" />
        </mxCell>
        <mxCell id="cr8irGBxpJgkFazn-tBJ-24" value="" style="points=[];perimeter=orthogonalPerimeter;rounded=0;shadow=0;strokeWidth=1;" vertex="1" parent="3nuBFxr9cyL0pnOWT2aG-5">
          <mxGeometry x="45" y="320" width="10" height="70" as="geometry" />
        </mxCell>
        <mxCell id="3nuBFxr9cyL0pnOWT2aG-9" value="UserCredential" style="verticalAlign=bottom;endArrow=block;shadow=0;strokeWidth=1;" parent="1" source="3nuBFxr9cyL0pnOWT2aG-6" edge="1">
          <mxGeometry relative="1" as="geometry">
            <mxPoint x="240" y="200" as="sourcePoint" />
            <mxPoint x="170" y="200" as="targetPoint" />
          </mxGeometry>
        </mxCell>
        <mxCell id="cr8irGBxpJgkFazn-tBJ-2" value="createUserWithEmailAndPasswordÂ (email,pwd)" style="verticalAlign=bottom;endArrow=block;shadow=0;strokeWidth=1;" edge="1" parent="1">
          <mxGeometry relative="1" as="geometry">
            <mxPoint x="180" y="170" as="sourcePoint" />
            <mxPoint x="610" y="170" as="targetPoint" />
            <Array as="points">
              <mxPoint x="390" y="170" />
            </Array>
          </mxGeometry>
        </mxCell>
        <mxCell id="cr8irGBxpJgkFazn-tBJ-3" value="Back-end" style="shape=umlLifeline;perimeter=lifelinePerimeter;container=1;collapsible=0;recursiveResize=0;rounded=0;shadow=0;strokeWidth=1;" vertex="1" parent="1">
          <mxGeometry x="900" y="80" width="90" height="1320" as="geometry" />
        </mxCell>
        <mxCell id="cr8irGBxpJgkFazn-tBJ-4" value="" style="points=[];perimeter=orthogonalPerimeter;rounded=0;shadow=0;strokeWidth=1;" vertex="1" parent="cr8irGBxpJgkFazn-tBJ-3">
          <mxGeometry x="40" y="160" width="10" height="120" as="geometry" />
        </mxCell>
        <mxCell id="cr8irGBxpJgkFazn-tBJ-26" value="" style="points=[];perimeter=orthogonalPerimeter;rounded=0;shadow=0;strokeWidth=1;" vertex="1" parent="cr8irGBxpJgkFazn-tBJ-3">
          <mxGeometry x="40" y="390" width="10" height="120" as="geometry" />
        </mxCell>
        <mxCell id="cr8irGBxpJgkFazn-tBJ-27" value="" style="points=[];perimeter=orthogonalPerimeter;rounded=0;shadow=0;strokeWidth=1;" vertex="1" parent="cr8irGBxpJgkFazn-tBJ-3">
          <mxGeometry x="585" y="430" width="10" height="40" as="geometry" />
        </mxCell>
        <mxCell id="cr8irGBxpJgkFazn-tBJ-28" value="/new-login?token=" style="verticalAlign=bottom;endArrow=block;shadow=0;strokeWidth=1;" edge="1" parent="cr8irGBxpJgkFazn-tBJ-3">
          <mxGeometry x="-0.1533" y="10" relative="1" as="geometry">
            <mxPoint x="-730" y="400" as="sourcePoint" />
            <mxPoint x="49.5" y="400" as="targetPoint" />
            <Array as="points">
              <mxPoint x="-520" y="400" />
            </Array>
            <mxPoint as="offset" />
          </mxGeometry>
        </mxCell>
        <mxCell id="cr8irGBxpJgkFazn-tBJ-34" value="HTTP 200 OK" style="verticalAlign=bottom;endArrow=block;shadow=0;strokeWidth=1;entryX=0.5;entryY=0.567;entryDx=0;entryDy=0;entryPerimeter=0;" edge="1" parent="cr8irGBxpJgkFazn-tBJ-3">
          <mxGeometry x="-0.1795" y="10" relative="1" as="geometry">
            <mxPoint x="50" y="470.0999999999999" as="sourcePoint" />
            <mxPoint x="-730" y="470" as="targetPoint" />
            <Array as="points">
              <mxPoint x="-520" y="470" />
            </Array>
            <mxPoint as="offset" />
          </mxGeometry>
        </mxCell>
        <mxCell id="cr8irGBxpJgkFazn-tBJ-64" value="" style="points=[];perimeter=orthogonalPerimeter;rounded=0;shadow=0;strokeWidth=1;" vertex="1" parent="cr8irGBxpJgkFazn-tBJ-3">
          <mxGeometry x="40" y="1000" width="10" height="120" as="geometry" />
        </mxCell>
        <mxCell id="cr8irGBxpJgkFazn-tBJ-79" value="" style="points=[];perimeter=orthogonalPerimeter;rounded=0;shadow=0;strokeWidth=1;" vertex="1" parent="cr8irGBxpJgkFazn-tBJ-3">
          <mxGeometry x="585" y="1140" width="10" height="40" as="geometry" />
        </mxCell>
        <mxCell id="cr8irGBxpJgkFazn-tBJ-80" value="" style="points=[];perimeter=orthogonalPerimeter;rounded=0;shadow=0;strokeWidth=1;" vertex="1" parent="cr8irGBxpJgkFazn-tBJ-3">
          <mxGeometry x="305" y="1140" width="10" height="40" as="geometry" />
        </mxCell>
        <mxCell id="cr8irGBxpJgkFazn-tBJ-81" value="" style="points=[];perimeter=orthogonalPerimeter;rounded=0;shadow=0;strokeWidth=1;" vertex="1" parent="cr8irGBxpJgkFazn-tBJ-3">
          <mxGeometry x="40" y="1130" width="10" height="70" as="geometry" />
        </mxCell>
        <mxCell id="cr8irGBxpJgkFazn-tBJ-82" value="verify(idToken)" style="verticalAlign=bottom;endArrow=block;shadow=0;strokeWidth=1;" edge="1" parent="cr8irGBxpJgkFazn-tBJ-3">
          <mxGeometry relative="1" as="geometry">
            <mxPoint x="60" y="1150" as="sourcePoint" />
            <mxPoint x="300" y="1150" as="targetPoint" />
            <Array as="points" />
          </mxGeometry>
        </mxCell>
        <mxCell id="cr8irGBxpJgkFazn-tBJ-83" value="remove(idToken,uid)" style="verticalAlign=bottom;endArrow=block;shadow=0;strokeWidth=1;" edge="1" parent="cr8irGBxpJgkFazn-tBJ-3">
          <mxGeometry x="0.039" y="10" relative="1" as="geometry">
            <mxPoint x="315" y="1160" as="sourcePoint" />
            <mxPoint x="584.5" y="1160" as="targetPoint" />
            <Array as="points" />
            <mxPoint as="offset" />
          </mxGeometry>
        </mxCell>
        <mxCell id="cr8irGBxpJgkFazn-tBJ-84" value="/sign-out?token=" style="verticalAlign=bottom;endArrow=block;shadow=0;strokeWidth=1;" edge="1" parent="cr8irGBxpJgkFazn-tBJ-3">
          <mxGeometry x="-0.1533" y="10" relative="1" as="geometry">
            <mxPoint x="-720" y="1140" as="sourcePoint" />
            <mxPoint x="44.5" y="1140" as="targetPoint" />
            <Array as="points">
              <mxPoint x="-525" y="1140" />
            </Array>
            <mxPoint as="offset" />
          </mxGeometry>
        </mxCell>
        <mxCell id="cr8irGBxpJgkFazn-tBJ-87" value="verify(idToken)" style="verticalAlign=bottom;endArrow=block;shadow=0;strokeWidth=1;" edge="1" parent="cr8irGBxpJgkFazn-tBJ-3">
          <mxGeometry relative="1" as="geometry">
            <mxPoint x="55.679999999999545" y="410" as="sourcePoint" />
            <mxPoint x="50.003529411764866" y="440" as="targetPoint" />
            <Array as="points">
              <mxPoint x="165.68" y="410" />
              <mxPoint x="165.68" y="440" />
              <mxPoint x="65.68" y="440" />
            </Array>
          </mxGeometry>
        </mxCell>
        <mxCell id="cr8irGBxpJgkFazn-tBJ-5" value="DB" style="shape=umlLifeline;perimeter=lifelinePerimeter;container=1;collapsible=0;recursiveResize=0;rounded=0;shadow=0;strokeWidth=1;" vertex="1" parent="1">
          <mxGeometry x="1440" y="80" width="100" height="1350" as="geometry" />
        </mxCell>
        <mxCell id="cr8irGBxpJgkFazn-tBJ-6" value="" style="points=[];perimeter=orthogonalPerimeter;rounded=0;shadow=0;strokeWidth=1;" vertex="1" parent="cr8irGBxpJgkFazn-tBJ-5">
          <mxGeometry x="45" y="230" width="10" height="40" as="geometry" />
        </mxCell>
        <mxCell id="cr8irGBxpJgkFazn-tBJ-37" value="" style="points=[];perimeter=orthogonalPerimeter;rounded=0;shadow=0;strokeWidth=1;" vertex="1" parent="cr8irGBxpJgkFazn-tBJ-5">
          <mxGeometry x="45" y="740" width="10" height="40" as="geometry" />
        </mxCell>
        <mxCell id="cr8irGBxpJgkFazn-tBJ-65" value="" style="points=[];perimeter=orthogonalPerimeter;rounded=0;shadow=0;strokeWidth=1;" vertex="1" parent="cr8irGBxpJgkFazn-tBJ-5">
          <mxGeometry x="45" y="1040" width="10" height="40" as="geometry" />
        </mxCell>
        <mxCell id="cr8irGBxpJgkFazn-tBJ-10" value="/new-login?token=" style="verticalAlign=bottom;endArrow=block;shadow=0;strokeWidth=1;" edge="1" parent="1" target="cr8irGBxpJgkFazn-tBJ-3">
          <mxGeometry x="-0.1533" y="10" relative="1" as="geometry">
            <mxPoint x="170" y="250" as="sourcePoint" />
            <mxPoint x="600" y="250" as="targetPoint" />
            <Array as="points">
              <mxPoint x="380" y="250" />
            </Array>
            <mxPoint as="offset" />
          </mxGeometry>
        </mxCell>
        <mxCell id="cr8irGBxpJgkFazn-tBJ-13" value="verify(idToken)" style="verticalAlign=bottom;endArrow=block;shadow=0;strokeWidth=1;" edge="1" parent="1" target="cr8irGBxpJgkFazn-tBJ-3">
          <mxGeometry relative="1" as="geometry">
            <mxPoint x="950" y="260" as="sourcePoint" />
            <mxPoint x="1000" y="310" as="targetPoint" />
            <Array as="points">
              <mxPoint x="1060" y="260" />
              <mxPoint x="1060" y="290" />
              <mxPoint x="960" y="290" />
            </Array>
          </mxGeometry>
        </mxCell>
        <mxCell id="cr8irGBxpJgkFazn-tBJ-18" value="HTTP 200 OK" style="verticalAlign=bottom;endArrow=block;shadow=0;strokeWidth=1;entryX=0.5;entryY=0.567;entryDx=0;entryDy=0;entryPerimeter=0;" edge="1" parent="1">
          <mxGeometry x="-0.1795" y="10" relative="1" as="geometry">
            <mxPoint x="940" y="350.0999999999999" as="sourcePoint" />
            <mxPoint x="160" y="350" as="targetPoint" />
            <Array as="points">
              <mxPoint x="370" y="350" />
            </Array>
            <mxPoint as="offset" />
          </mxGeometry>
        </mxCell>
        <mxCell id="cr8irGBxpJgkFazn-tBJ-21" value="" style="points=[];perimeter=orthogonalPerimeter;rounded=0;shadow=0;strokeWidth=1;" vertex="1" parent="1">
          <mxGeometry x="165" y="400" width="10" height="210" as="geometry" />
        </mxCell>
        <mxCell id="cr8irGBxpJgkFazn-tBJ-22" value="login" style="verticalAlign=bottom;startArrow=oval;endArrow=block;startSize=8;shadow=0;strokeWidth=1;" edge="1" parent="1">
          <mxGeometry relative="1" as="geometry">
            <mxPoint x="105" y="410" as="sourcePoint" />
            <mxPoint x="165" y="410" as="targetPoint" />
          </mxGeometry>
        </mxCell>
        <mxCell id="cr8irGBxpJgkFazn-tBJ-23" value="signInWithEmailAndPasswordÂ Â (email,pwd)" style="verticalAlign=bottom;endArrow=block;shadow=0;strokeWidth=1;" edge="1" parent="1">
          <mxGeometry relative="1" as="geometry">
            <mxPoint x="180" y="420" as="sourcePoint" />
            <mxPoint x="610" y="420" as="targetPoint" />
            <Array as="points">
              <mxPoint x="390" y="420" />
            </Array>
          </mxGeometry>
        </mxCell>
        <mxCell id="cr8irGBxpJgkFazn-tBJ-25" value="UserCredential" style="verticalAlign=bottom;endArrow=block;shadow=0;strokeWidth=1;" edge="1" parent="1">
          <mxGeometry relative="1" as="geometry">
            <mxPoint x="610" y="450" as="sourcePoint" />
            <mxPoint x="175" y="450" as="targetPoint" />
          </mxGeometry>
        </mxCell>
        <mxCell id="cr8irGBxpJgkFazn-tBJ-36" value="" style="points=[];perimeter=orthogonalPerimeter;rounded=0;shadow=0;strokeWidth=1;" vertex="1" parent="1">
          <mxGeometry x="940" y="780" width="10" height="70" as="geometry" />
        </mxCell>
        <mxCell id="cr8irGBxpJgkFazn-tBJ-38" value="/sign-out?token=" style="verticalAlign=bottom;endArrow=block;shadow=0;strokeWidth=1;" edge="1" parent="1">
          <mxGeometry x="-0.1533" y="10" relative="1" as="geometry">
            <mxPoint x="165" y="790" as="sourcePoint" />
            <mxPoint x="944.5" y="790" as="targetPoint" />
            <Array as="points">
              <mxPoint x="375" y="790" />
            </Array>
            <mxPoint as="offset" />
          </mxGeometry>
        </mxCell>
        <mxCell id="cr8irGBxpJgkFazn-tBJ-41" value="remove(idToken,uid)" style="verticalAlign=bottom;endArrow=block;shadow=0;strokeWidth=1;" edge="1" parent="1" source="cr8irGBxpJgkFazn-tBJ-3">
          <mxGeometry x="0.039" y="10" relative="1" as="geometry">
            <mxPoint x="1215" y="840" as="sourcePoint" />
            <mxPoint x="1484.5" y="840" as="targetPoint" />
            <Array as="points" />
            <mxPoint as="offset" />
          </mxGeometry>
        </mxCell>
        <mxCell id="cr8irGBxpJgkFazn-tBJ-45" value="" style="points=[];perimeter=orthogonalPerimeter;rounded=0;shadow=0;strokeWidth=1;" vertex="1" parent="1">
          <mxGeometry x="165" y="770" width="10" height="210" as="geometry" />
        </mxCell>
        <mxCell id="cr8irGBxpJgkFazn-tBJ-46" value="signout" style="verticalAlign=bottom;startArrow=oval;endArrow=block;startSize=8;shadow=0;strokeWidth=1;" edge="1" parent="1">
          <mxGeometry x="-0.3333" y="10" relative="1" as="geometry">
            <mxPoint x="100" y="780" as="sourcePoint" />
            <mxPoint x="160" y="780" as="targetPoint" />
            <mxPoint as="offset" />
          </mxGeometry>
        </mxCell>
        <mxCell id="cr8irGBxpJgkFazn-tBJ-66" value="/new-login?token=" style="verticalAlign=bottom;endArrow=block;shadow=0;strokeWidth=1;" edge="1" parent="1">
          <mxGeometry x="-0.1533" y="10" relative="1" as="geometry">
            <mxPoint x="165" y="1100" as="sourcePoint" />
            <mxPoint x="944.5" y="1100" as="targetPoint" />
            <Array as="points">
              <mxPoint x="375" y="1100" />
            </Array>
            <mxPoint as="offset" />
          </mxGeometry>
        </mxCell>
        <mxCell id="cr8irGBxpJgkFazn-tBJ-68" value="verify(idToken)" style="verticalAlign=bottom;endArrow=block;shadow=0;strokeWidth=1;" edge="1" parent="1">
          <mxGeometry relative="1" as="geometry">
            <mxPoint x="955" y="1120" as="sourcePoint" />
            <mxPoint x="1195" y="1120" as="targetPoint" />
            <Array as="points" />
          </mxGeometry>
        </mxCell>
        <mxCell id="cr8irGBxpJgkFazn-tBJ-69" value="save(idToken,uid)" style="verticalAlign=bottom;endArrow=block;shadow=0;strokeWidth=1;" edge="1" parent="1">
          <mxGeometry x="0.039" y="10" relative="1" as="geometry">
            <mxPoint x="1215" y="1140" as="sourcePoint" />
            <mxPoint x="1484.5" y="1140" as="targetPoint" />
            <Array as="points" />
            <mxPoint as="offset" />
          </mxGeometry>
        </mxCell>
        <mxCell id="cr8irGBxpJgkFazn-tBJ-70" value="" style="verticalAlign=bottom;endArrow=block;shadow=0;strokeWidth=1;" edge="1" parent="1">
          <mxGeometry x="0.039" y="10" relative="1" as="geometry">
            <mxPoint x="1195" y="1150" as="sourcePoint" />
            <mxPoint x="945" y="1150" as="targetPoint" />
            <Array as="points" />
            <mxPoint as="offset" />
          </mxGeometry>
        </mxCell>
        <mxCell id="cr8irGBxpJgkFazn-tBJ-71" value="success" style="edgeLabel;html=1;align=center;verticalAlign=middle;resizable=0;points=[];" vertex="1" connectable="0" parent="cr8irGBxpJgkFazn-tBJ-70">
          <mxGeometry x="0.6467" y="3" relative="1" as="geometry">
            <mxPoint x="75.83" y="-13" as="offset" />
          </mxGeometry>
        </mxCell>
        <mxCell id="cr8irGBxpJgkFazn-tBJ-72" value="HTTP 200 OK" style="verticalAlign=bottom;endArrow=block;shadow=0;strokeWidth=1;entryX=0.5;entryY=0.567;entryDx=0;entryDy=0;entryPerimeter=0;" edge="1" parent="1">
          <mxGeometry x="-0.1795" y="10" relative="1" as="geometry">
            <mxPoint x="945" y="1170.1" as="sourcePoint" />
            <mxPoint x="165" y="1170" as="targetPoint" />
            <Array as="points">
              <mxPoint x="375" y="1170" />
            </Array>
            <mxPoint as="offset" />
          </mxGeometry>
        </mxCell>
        <mxCell id="cr8irGBxpJgkFazn-tBJ-74" value="onIdTokenChange/refresh token" style="verticalAlign=bottom;startArrow=oval;endArrow=block;startSize=8;shadow=0;strokeWidth=1;" edge="1" parent="1">
          <mxGeometry relative="1" as="geometry">
            <mxPoint x="100" y="1080" as="sourcePoint" />
            <mxPoint x="160" y="1080" as="targetPoint" />
          </mxGeometry>
        </mxCell>
        <mxCell id="cr8irGBxpJgkFazn-tBJ-86" value="save(idToken,uid)" style="verticalAlign=bottom;endArrow=block;shadow=0;strokeWidth=1;" edge="1" parent="1" target="cr8irGBxpJgkFazn-tBJ-5">
          <mxGeometry x="0.039" y="10" relative="1" as="geometry">
            <mxPoint x="950" y="320" as="sourcePoint" />
            <mxPoint x="1200" y="320" as="targetPoint" />
            <Array as="points" />
            <mxPoint as="offset" />
          </mxGeometry>
        </mxCell>
        <mxCell id="cr8irGBxpJgkFazn-tBJ-88" value="save(idToken,uid)" style="verticalAlign=bottom;endArrow=block;shadow=0;strokeWidth=1;" edge="1" parent="1">
          <mxGeometry x="0.039" y="10" relative="1" as="geometry">
            <mxPoint x="950" y="540" as="sourcePoint" />
            <mxPoint x="1489.5" y="540" as="targetPoint" />
            <Array as="points" />
            <mxPoint as="offset" />
          </mxGeometry>
        </mxCell>
        <mxCell id="cr8irGBxpJgkFazn-tBJ-89" value="verify(idToken)" style="verticalAlign=bottom;endArrow=block;shadow=0;strokeWidth=1;" edge="1" parent="1">
          <mxGeometry relative="1" as="geometry">
            <mxPoint x="955.6800000000001" y="790" as="sourcePoint" />
            <mxPoint x="950.0035294117658" y="820" as="targetPoint" />
            <Array as="points">
              <mxPoint x="1065.6800000000007" y="790" />
              <mxPoint x="1065.6800000000007" y="820" />
              <mxPoint x="965.6800000000007" y="820" />
            </Array>
          </mxGeometry>
        </mxCell>
      </root>
    </mxGraphModel>
  </diagram>
</mxfile>
